# xmcd
#
# Track frame offsets:
#	150
#	14201
#	34427
#	55874
#	70683
#	103268
#	115204
#	142866
#	161108
#	173990
#	189552
#	209359
#	226257
#	254156
#	261402
#	290292
#
# Disc length: 4324 seconds
#
# Revision: 0
# Processed by: cddbd v1.5.2PL0 Copyright (c) Steve Scherf et al.
# Submitted via: audiograbber 1.83.01
#
DISCID=f910e210
DTITLE=Various Artist - Edited by Avocado Rabbit, The Collagier and Digiridoo - Forgiv
DTITLE=eness:  The Heart Of The Matter - Disc 2
DYEAR=2013
DGENRE=Other
TTITLE0=Nat King Cole - When I Fall In Love
TTITLE1=Phil Collins - Do You Remember?
TTITLE2=India Arie - Wings Of Forgiveness
TTITLE3=Colin Blunstone - Say You Don't Mind
TTITLE4=The Moody Blues - Talking Out Of Turn
TTITLE5=Catherine Deneuve - Toi Jamais
TTITLE6=Dead Can Dance - The Host Of Seraphim (ENiGMA Dubz Mix)
TTITLE7=Roy Orbison and Emmylou Harris - That Lovin' You Feelin' Again
TTITLE8=Avocado Rabbit - Feelings (instrumental)
TTITLE9=Beirut - Guaymas Sonora
TTITLE10=Sting - Fortress Around Your Heart
TTITLE11=Reina Republicana - Mala Memoria
TTITLE12=Dead Can Dance - All In Good Time
TTITLE13=Graeme Edge - The Spirit
TTITLE14=Eric Carmen - Hungry Eyes (Extended Mix)
TTITLE15=Thelonius Monk - Between The Devil And The Deep Blue Sea
EXTD=A triple-DJ theme mix.
EXTT0=
EXTT1=
EXTT2=
EXTT3=Denny Laine cover.
EXTT4=
EXTT5=
EXTT6=
EXTT7=
EXTT8=Guitar solo - Morris Albert cover.
EXTT9=
EXTT10=
EXTT11=
EXTT12=
EXTT13=
EXTT14=
EXTT15=
PLAYORDER=
